<?xml version="1.0" encoding="UTF-8"?>
<svg id="_レイヤー_1" data-name="レイヤー 1" xmlns="http://www.w3.org/2000/svg"  width="100vw" viewBox="0 0 432.11 171.26">
  <defs>
    <style>
      .nami {
        fill: #D9A62E;
        stroke-width: 0px;
      }
    </style>
  </defs>
  <path class="nami" d="m432.11,163.47c-18.39-5.48-43.91-17.83-75.64-15.16-12.28,1.03-18.89,4.41-46.65,8.97,0,0-22.58,3.71-43.03,5.57-48.17,4.38-60.11-11.04-105.08-10.52-53.82.62-69.08,23.07-124.11,18.26-16.37-1.43-29.36-4.68-37.59-7.12V31.64c6.67,3.39,16.86,7.75,30.35,10.52,37.3,7.68,70.68-2.21,81.53-5.57,18.38-5.7,14.12-7.83,42.58-18.88,22.28-8.65,38.18-14.83,59.79-17.02,18.46-1.87,32.48.17,59.79,4.33,31.36,4.78,45.6,9.55,71.11,15.16,19.72,4.34,49.08,9.83,86.96,13.31v129.97Z"/>
</svg>