<?xml version="1.0" encoding="UTF-8"?>
<svg id="_レイヤー_1" data-name="レイヤー 1" xmlns="http://www.w3.org/2000/svg" viewBox="0 0 1300 800">
  <defs>
    <style>
      .cls-1 {
        fill: #d9a62e;
      }
    </style>
  </defs>
  <path class="cls-1" d="m1297.81,756.51c-42.73,5.03-108.66,8.68-186.88-5.17-97.12-17.2-133.6-47.3-214.7-68.98-121.45-32.47-223.29-14.07-291.61-1.72-178.62,32.28-208.98,103.5-354.09,117.27-104.65,9.93-192.81-17.25-250.43-41.39-.04-200.63-.07-401.26-.11-601.88,25.06,10.93,67.45,27.63,121.58,39.67,244.72,54.42,478.7-42.31,593.6-91.4,78.99-33.75,125.83-62.3,221.11-84.51,117.69-27.43,190.63-17.53,221.11-12.07,61.58,11.02,110.17,32.6,142.6,50.01-.73,233.4-1.46,466.79-2.19,700.19Z"/>
</svg>